# xmcd
#
# Track frame offsets: 
#        150
#        4972
#        16852
#        26118
#        37559
#        48180
#        59774
#        76634
#        86688
#        99166
#        108471
#
# Disc length: 1487 seconds
#
# Revision: 0
# Processed by: cddbd v1.5.2PL0 Copyright (c) Steve Scherf et al.
# Submitted via: ExactAudioCopy v1.0b3
#
DISCID=7305cd0b
DTITLE=Crankshaft - Suckin' Gas and Haulin' Ass
DYEAR=2009
DGENRE=Blues
TTITLE0=Intro
TTITLE1=Nail Driver
TTITLE2=Crankshaft
TTITLE3=Early In The Morning
TTITLE4=Sugar High
TTITLE5=Rust Bucket
TTITLE6=Sleepy Town
TTITLE7=Down Brownie
TTITLE8=Red Hot
TTITLE9=Pine Box Rottin'
TTITLE10=Outro
EXTD=
EXTT0=
EXTT1=
EXTT2=
EXTT3=
EXTT4=
EXTT5=
EXTT6=
EXTT7=
EXTT8=
EXTT9=
EXTT10=
PLAYORDER=
